<svg xmlns="http://www.w3.org/2000/svg" width="40" height="40" fill="none"><path stroke="#f5b8ff" stroke-linecap="round" stroke-linejoin="round" stroke-width="2" d="M20 4.992v2.501M26.248 9.178l1.255-2.174M30.821 13.75l2.174-1.255M32.505 20h2.501M4.994 20h2.5M9.179 13.75l-2.174-1.255M13.752 9.178l-1.255-2.174M20 32.504v2.5M12.497 32.995l1.255-2.175M9.179 26.247l-2.174 1.255M32.996 27.502l-2.175-1.255M26.248 30.82l1.255 2.175M16.665 16.682a3.26 3.26 0 0 1 3.308-2.519 3.19 3.19 0 0 1 3.362 2.988c0 2.247-3.212 2.988-3.212 4.482M20.308 25.65a.185.185 0 1 1-.37 0 .185.185 0 0 1 .37 0"/></svg>